%TF.GenerationSoftware,KiCad,Pcbnew,8.0.8*%
%TF.CreationDate,2025-02-19T22:48:38+00:00*%
%TF.ProjectId,Rotary Encoder,526f7461-7279-4204-956e-636f6465722e,rev?*%
%TF.SameCoordinates,Original*%
%TF.FileFunction,Legend,Top*%
%TF.FilePolarity,Positive*%
%FSLAX46Y46*%
G04 Gerber Fmt 4.6, Leading zero omitted, Abs format (unit mm)*
G04 Created by KiCad (PCBNEW 8.0.8) date 2025-02-19 22:48:38*
%MOMM*%
%LPD*%
G01*
G04 APERTURE LIST*
%ADD10C,0.100000*%
%ADD11C,0.150000*%
%ADD12C,0.254000*%
%ADD13C,0.120000*%
%ADD14C,0.200000*%
G04 APERTURE END LIST*
D10*
X117307484Y-112157243D02*
X117307484Y-111157243D01*
X117878912Y-112157243D02*
X117450341Y-111585814D01*
X117878912Y-111157243D02*
X117307484Y-111728671D01*
X117259865Y-115091416D02*
X117736055Y-115091416D01*
X117164627Y-115377131D02*
X117497960Y-114377131D01*
X117497960Y-114377131D02*
X117831293Y-115377131D01*
X117831293Y-117644638D02*
X117736055Y-117597019D01*
X117736055Y-117597019D02*
X117593198Y-117597019D01*
X117593198Y-117597019D02*
X117450341Y-117644638D01*
X117450341Y-117644638D02*
X117355103Y-117739876D01*
X117355103Y-117739876D02*
X117307484Y-117835114D01*
X117307484Y-117835114D02*
X117259865Y-118025590D01*
X117259865Y-118025590D02*
X117259865Y-118168447D01*
X117259865Y-118168447D02*
X117307484Y-118358923D01*
X117307484Y-118358923D02*
X117355103Y-118454161D01*
X117355103Y-118454161D02*
X117450341Y-118549400D01*
X117450341Y-118549400D02*
X117593198Y-118597019D01*
X117593198Y-118597019D02*
X117688436Y-118597019D01*
X117688436Y-118597019D02*
X117831293Y-118549400D01*
X117831293Y-118549400D02*
X117878912Y-118501780D01*
X117878912Y-118501780D02*
X117878912Y-118168447D01*
X117878912Y-118168447D02*
X117688436Y-118168447D01*
D11*
X112069666Y-109335219D02*
X112069666Y-110049504D01*
X112069666Y-110049504D02*
X112022047Y-110192361D01*
X112022047Y-110192361D02*
X111926809Y-110287600D01*
X111926809Y-110287600D02*
X111783952Y-110335219D01*
X111783952Y-110335219D02*
X111688714Y-110335219D01*
X112545857Y-110335219D02*
X112545857Y-109335219D01*
X113117285Y-110335219D02*
X112688714Y-109763790D01*
X113117285Y-109335219D02*
X112545857Y-109906647D01*
X114069666Y-110335219D02*
X113498238Y-110335219D01*
X113783952Y-110335219D02*
X113783952Y-109335219D01*
X113783952Y-109335219D02*
X113688714Y-109478076D01*
X113688714Y-109478076D02*
X113593476Y-109573314D01*
X113593476Y-109573314D02*
X113498238Y-109620933D01*
X112315666Y-119495219D02*
X112315666Y-120209504D01*
X112315666Y-120209504D02*
X112268047Y-120352361D01*
X112268047Y-120352361D02*
X112172809Y-120447600D01*
X112172809Y-120447600D02*
X112029952Y-120495219D01*
X112029952Y-120495219D02*
X111934714Y-120495219D01*
X112696619Y-119495219D02*
X113363285Y-119495219D01*
X113363285Y-119495219D02*
X112934714Y-120495219D01*
X136053533Y-116837619D02*
X135720200Y-116361428D01*
X135482105Y-116837619D02*
X135482105Y-115837619D01*
X135482105Y-115837619D02*
X135863057Y-115837619D01*
X135863057Y-115837619D02*
X135958295Y-115885238D01*
X135958295Y-115885238D02*
X136005914Y-115932857D01*
X136005914Y-115932857D02*
X136053533Y-116028095D01*
X136053533Y-116028095D02*
X136053533Y-116170952D01*
X136053533Y-116170952D02*
X136005914Y-116266190D01*
X136005914Y-116266190D02*
X135958295Y-116313809D01*
X135958295Y-116313809D02*
X135863057Y-116361428D01*
X135863057Y-116361428D02*
X135482105Y-116361428D01*
X137005914Y-116837619D02*
X136434486Y-116837619D01*
X136720200Y-116837619D02*
X136720200Y-115837619D01*
X136720200Y-115837619D02*
X136624962Y-115980476D01*
X136624962Y-115980476D02*
X136529724Y-116075714D01*
X136529724Y-116075714D02*
X136434486Y-116123333D01*
X135951933Y-119301419D02*
X135618600Y-118825228D01*
X135380505Y-119301419D02*
X135380505Y-118301419D01*
X135380505Y-118301419D02*
X135761457Y-118301419D01*
X135761457Y-118301419D02*
X135856695Y-118349038D01*
X135856695Y-118349038D02*
X135904314Y-118396657D01*
X135904314Y-118396657D02*
X135951933Y-118491895D01*
X135951933Y-118491895D02*
X135951933Y-118634752D01*
X135951933Y-118634752D02*
X135904314Y-118729990D01*
X135904314Y-118729990D02*
X135856695Y-118777609D01*
X135856695Y-118777609D02*
X135761457Y-118825228D01*
X135761457Y-118825228D02*
X135380505Y-118825228D01*
X136332886Y-118396657D02*
X136380505Y-118349038D01*
X136380505Y-118349038D02*
X136475743Y-118301419D01*
X136475743Y-118301419D02*
X136713838Y-118301419D01*
X136713838Y-118301419D02*
X136809076Y-118349038D01*
X136809076Y-118349038D02*
X136856695Y-118396657D01*
X136856695Y-118396657D02*
X136904314Y-118491895D01*
X136904314Y-118491895D02*
X136904314Y-118587133D01*
X136904314Y-118587133D02*
X136856695Y-118729990D01*
X136856695Y-118729990D02*
X136285267Y-119301419D01*
X136285267Y-119301419D02*
X136904314Y-119301419D01*
X138136333Y-124463980D02*
X138088714Y-124511600D01*
X138088714Y-124511600D02*
X137945857Y-124559219D01*
X137945857Y-124559219D02*
X137850619Y-124559219D01*
X137850619Y-124559219D02*
X137707762Y-124511600D01*
X137707762Y-124511600D02*
X137612524Y-124416361D01*
X137612524Y-124416361D02*
X137564905Y-124321123D01*
X137564905Y-124321123D02*
X137517286Y-124130647D01*
X137517286Y-124130647D02*
X137517286Y-123987790D01*
X137517286Y-123987790D02*
X137564905Y-123797314D01*
X137564905Y-123797314D02*
X137612524Y-123702076D01*
X137612524Y-123702076D02*
X137707762Y-123606838D01*
X137707762Y-123606838D02*
X137850619Y-123559219D01*
X137850619Y-123559219D02*
X137945857Y-123559219D01*
X137945857Y-123559219D02*
X138088714Y-123606838D01*
X138088714Y-123606838D02*
X138136333Y-123654457D01*
X138517286Y-123654457D02*
X138564905Y-123606838D01*
X138564905Y-123606838D02*
X138660143Y-123559219D01*
X138660143Y-123559219D02*
X138898238Y-123559219D01*
X138898238Y-123559219D02*
X138993476Y-123606838D01*
X138993476Y-123606838D02*
X139041095Y-123654457D01*
X139041095Y-123654457D02*
X139088714Y-123749695D01*
X139088714Y-123749695D02*
X139088714Y-123844933D01*
X139088714Y-123844933D02*
X139041095Y-123987790D01*
X139041095Y-123987790D02*
X138469667Y-124559219D01*
X138469667Y-124559219D02*
X139088714Y-124559219D01*
D12*
X149650752Y-109611680D02*
X149832180Y-109672156D01*
X149832180Y-109672156D02*
X149892657Y-109732632D01*
X149892657Y-109732632D02*
X149953133Y-109853584D01*
X149953133Y-109853584D02*
X149953133Y-110035013D01*
X149953133Y-110035013D02*
X149892657Y-110155965D01*
X149892657Y-110155965D02*
X149832180Y-110216442D01*
X149832180Y-110216442D02*
X149711228Y-110276918D01*
X149711228Y-110276918D02*
X149227418Y-110276918D01*
X149227418Y-110276918D02*
X149227418Y-109006918D01*
X149227418Y-109006918D02*
X149650752Y-109006918D01*
X149650752Y-109006918D02*
X149771704Y-109067394D01*
X149771704Y-109067394D02*
X149832180Y-109127870D01*
X149832180Y-109127870D02*
X149892657Y-109248822D01*
X149892657Y-109248822D02*
X149892657Y-109369775D01*
X149892657Y-109369775D02*
X149832180Y-109490727D01*
X149832180Y-109490727D02*
X149771704Y-109551203D01*
X149771704Y-109551203D02*
X149650752Y-109611680D01*
X149650752Y-109611680D02*
X149227418Y-109611680D01*
X151162657Y-110276918D02*
X150436942Y-110276918D01*
X150799799Y-110276918D02*
X150799799Y-109006918D01*
X150799799Y-109006918D02*
X150678847Y-109188346D01*
X150678847Y-109188346D02*
X150557895Y-109309299D01*
X150557895Y-109309299D02*
X150436942Y-109369775D01*
D11*
X138212533Y-111382980D02*
X138164914Y-111430600D01*
X138164914Y-111430600D02*
X138022057Y-111478219D01*
X138022057Y-111478219D02*
X137926819Y-111478219D01*
X137926819Y-111478219D02*
X137783962Y-111430600D01*
X137783962Y-111430600D02*
X137688724Y-111335361D01*
X137688724Y-111335361D02*
X137641105Y-111240123D01*
X137641105Y-111240123D02*
X137593486Y-111049647D01*
X137593486Y-111049647D02*
X137593486Y-110906790D01*
X137593486Y-110906790D02*
X137641105Y-110716314D01*
X137641105Y-110716314D02*
X137688724Y-110621076D01*
X137688724Y-110621076D02*
X137783962Y-110525838D01*
X137783962Y-110525838D02*
X137926819Y-110478219D01*
X137926819Y-110478219D02*
X138022057Y-110478219D01*
X138022057Y-110478219D02*
X138164914Y-110525838D01*
X138164914Y-110525838D02*
X138212533Y-110573457D01*
X139164914Y-111478219D02*
X138593486Y-111478219D01*
X138879200Y-111478219D02*
X138879200Y-110478219D01*
X138879200Y-110478219D02*
X138783962Y-110621076D01*
X138783962Y-110621076D02*
X138688724Y-110716314D01*
X138688724Y-110716314D02*
X138593486Y-110763933D01*
D13*
%TO.C,JK1*%
X103082400Y-111811800D02*
X109082400Y-111811800D01*
X103082400Y-112571800D02*
X103082400Y-111811800D01*
X109082400Y-110861800D02*
X109082400Y-113521800D01*
X109082400Y-111911800D02*
X103082400Y-111911800D01*
X109082400Y-112031800D02*
X103082400Y-112031800D01*
X109082400Y-112151800D02*
X103082400Y-112151800D01*
X109082400Y-112271800D02*
X103082400Y-112271800D01*
X109082400Y-112391800D02*
X103082400Y-112391800D01*
X109082400Y-112511800D02*
X103082400Y-112511800D01*
X109082400Y-112571800D02*
X103082400Y-112571800D01*
X109082400Y-113521800D02*
X111742400Y-113521800D01*
X111742400Y-110861800D02*
X109082400Y-110861800D01*
X111742400Y-113521800D02*
X111742400Y-110861800D01*
X112139471Y-111811800D02*
X111742400Y-111811800D01*
X112139471Y-112571800D02*
X111742400Y-112571800D01*
X114612400Y-111811800D02*
X114225329Y-111811800D01*
X114612400Y-112571800D02*
X114225329Y-112571800D01*
X116992400Y-112191800D02*
X116992400Y-113461800D01*
X116992400Y-113461800D02*
X115722400Y-113461800D01*
%TO.C,J7*%
X103093600Y-114534600D02*
X109093600Y-114534600D01*
X103093600Y-115294600D02*
X103093600Y-114534600D01*
X103093600Y-117074600D02*
X109093600Y-117074600D01*
X103093600Y-117834600D02*
X103093600Y-117074600D01*
X109093600Y-113584600D02*
X109093600Y-118784600D01*
X109093600Y-115294600D02*
X103093600Y-115294600D01*
X109093600Y-117174600D02*
X103093600Y-117174600D01*
X109093600Y-117294600D02*
X103093600Y-117294600D01*
X109093600Y-117414600D02*
X103093600Y-117414600D01*
X109093600Y-117534600D02*
X103093600Y-117534600D01*
X109093600Y-117654600D02*
X103093600Y-117654600D01*
X109093600Y-117774600D02*
X103093600Y-117774600D01*
X109093600Y-117834600D02*
X103093600Y-117834600D01*
X109093600Y-118784600D02*
X111753600Y-118784600D01*
X111753600Y-113584600D02*
X109093600Y-113584600D01*
X111753600Y-116184600D02*
X109093600Y-116184600D01*
X111753600Y-118784600D02*
X111753600Y-113584600D01*
X112150671Y-114534600D02*
X111753600Y-114534600D01*
X112150671Y-115294600D02*
X111753600Y-115294600D01*
X112150671Y-117074600D02*
X111753600Y-117074600D01*
X112150671Y-117834600D02*
X111753600Y-117834600D01*
X114623600Y-117074600D02*
X114236529Y-117074600D01*
X114623600Y-117834600D02*
X114236529Y-117834600D01*
X114690671Y-114534600D02*
X114236529Y-114534600D01*
X114690671Y-115294600D02*
X114236529Y-115294600D01*
X117003600Y-117454600D02*
X117003600Y-118724600D01*
X117003600Y-118724600D02*
X115733600Y-118724600D01*
%TO.C,R1*%
X139574536Y-115597000D02*
X140028664Y-115597000D01*
X139574536Y-117067000D02*
X140028664Y-117067000D01*
%TO.C,R2*%
X139625336Y-118289400D02*
X140079464Y-118289400D01*
X139625336Y-119759400D02*
X140079464Y-119759400D01*
%TO.C,C2*%
X139565748Y-121489800D02*
X140088252Y-121489800D01*
X139565748Y-122959800D02*
X140088252Y-122959800D01*
D10*
%TO.C,B1*%
X145049600Y-118642000D02*
X145049600Y-116642000D01*
X149549600Y-111792000D02*
X151749600Y-111792000D01*
X151749600Y-111792000D02*
X151749600Y-123492000D01*
X151749600Y-123492000D02*
X149549600Y-123492000D01*
D14*
X152349600Y-120042000D02*
X152349600Y-120042000D01*
X152349600Y-120242000D02*
X152349600Y-120242000D01*
X152349600Y-120042000D02*
G75*
G02*
X152349600Y-120242000I0J-100000D01*
G01*
X152349600Y-120242000D02*
G75*
G02*
X152349600Y-120042000I0J100000D01*
G01*
D13*
%TO.C,C1*%
X140037452Y-112447400D02*
X139514948Y-112447400D01*
X140037452Y-113917400D02*
X139514948Y-113917400D01*
%TD*%
M02*
