%TF.GenerationSoftware,KiCad,Pcbnew,8.0.8*%
%TF.CreationDate,2025-02-19T22:48:37+00:00*%
%TF.ProjectId,Rotary Encoder,526f7461-7279-4204-956e-636f6465722e,rev?*%
%TF.SameCoordinates,Original*%
%TF.FileFunction,Copper,L1,Top*%
%TF.FilePolarity,Positive*%
%FSLAX46Y46*%
G04 Gerber Fmt 4.6, Leading zero omitted, Abs format (unit mm)*
G04 Created by KiCad (PCBNEW 8.0.8) date 2025-02-19 22:48:37*
%MOMM*%
%LPD*%
G01*
G04 APERTURE LIST*
G04 Aperture macros list*
%AMRoundRect*
0 Rectangle with rounded corners*
0 $1 Rounding radius*
0 $2 $3 $4 $5 $6 $7 $8 $9 X,Y pos of 4 corners*
0 Add a 4 corners polygon primitive as box body*
4,1,4,$2,$3,$4,$5,$6,$7,$8,$9,$2,$3,0*
0 Add four circle primitives for the rounded corners*
1,1,$1+$1,$2,$3*
1,1,$1+$1,$4,$5*
1,1,$1+$1,$6,$7*
1,1,$1+$1,$8,$9*
0 Add four rect primitives between the rounded corners*
20,1,$1+$1,$2,$3,$4,$5,0*
20,1,$1+$1,$4,$5,$6,$7,0*
20,1,$1+$1,$6,$7,$8,$9,0*
20,1,$1+$1,$8,$9,$2,$3,0*%
G04 Aperture macros list end*
%TA.AperFunction,ComponentPad*%
%ADD10R,1.700000X1.700000*%
%TD*%
%TA.AperFunction,ComponentPad*%
%ADD11O,1.700000X1.700000*%
%TD*%
%TA.AperFunction,SMDPad,CuDef*%
%ADD12RoundRect,0.250000X-0.350000X-0.450000X0.350000X-0.450000X0.350000X0.450000X-0.350000X0.450000X0*%
%TD*%
%TA.AperFunction,SMDPad,CuDef*%
%ADD13RoundRect,0.250000X-0.337500X-0.475000X0.337500X-0.475000X0.337500X0.475000X-0.337500X0.475000X0*%
%TD*%
%TA.AperFunction,ComponentPad*%
%ADD14C,1.650000*%
%TD*%
%TA.AperFunction,ComponentPad*%
%ADD15C,4.710000*%
%TD*%
%TA.AperFunction,SMDPad,CuDef*%
%ADD16RoundRect,0.250000X0.337500X0.475000X-0.337500X0.475000X-0.337500X-0.475000X0.337500X-0.475000X0*%
%TD*%
%TA.AperFunction,ViaPad*%
%ADD17C,0.600000*%
%TD*%
%TA.AperFunction,Conductor*%
%ADD18C,0.500000*%
%TD*%
%TA.AperFunction,Conductor*%
%ADD19C,0.200000*%
%TD*%
G04 APERTURE END LIST*
D10*
%TO.P,JK1,1,Pin_1*%
%TO.N,SWITCH*%
X115722400Y-112191800D03*
D11*
%TO.P,JK1,2,Pin_2*%
%TO.N,U3-40-PC9*%
X113182400Y-112191800D03*
%TD*%
D10*
%TO.P,J7,1,Pin_1*%
%TO.N,GND*%
X115733600Y-117454600D03*
D11*
%TO.P,J7,2,Pin_2*%
%TO.N,+5V*%
X113193600Y-117454600D03*
%TO.P,J7,3,Pin_3*%
%TO.N,ENC1*%
X115733600Y-114914600D03*
%TO.P,J7,4,Pin_4*%
%TO.N,ENC2*%
X113193600Y-114914600D03*
%TD*%
D12*
%TO.P,R1,1*%
%TO.N,+5V*%
X138801600Y-116332000D03*
%TO.P,R1,2*%
%TO.N,ENC1*%
X140801600Y-116332000D03*
%TD*%
%TO.P,R2,1*%
%TO.N,+5V*%
X138852400Y-119024400D03*
%TO.P,R2,2*%
%TO.N,ENC2*%
X140852400Y-119024400D03*
%TD*%
D13*
%TO.P,C2,1*%
%TO.N,ENC2*%
X138789500Y-122224800D03*
%TO.P,C2,2*%
%TO.N,GND*%
X140864500Y-122224800D03*
%TD*%
D14*
%TO.P,B1,1,A*%
%TO.N,ENC2*%
X147799600Y-120182000D03*
%TO.P,B1,2,C*%
%TO.N,GND*%
X147799600Y-117642000D03*
%TO.P,B1,3,B*%
%TO.N,ENC1*%
X147799600Y-115102000D03*
%TO.P,B1,4,E*%
%TO.N,SWITCH*%
X145299600Y-115102000D03*
%TO.P,B1,5,D*%
%TO.N,GND*%
X145299600Y-120182000D03*
D15*
%TO.P,B1,6,MH1*%
X146549600Y-111792000D03*
%TO.P,B1,7,MH2*%
X146549600Y-123492000D03*
%TD*%
D16*
%TO.P,C1,1*%
%TO.N,ENC1*%
X140813700Y-113182400D03*
%TO.P,C1,2*%
%TO.N,GND*%
X138738700Y-113182400D03*
%TD*%
D17*
%TO.N,SWITCH*%
X136448800Y-111633000D03*
%TD*%
D18*
%TO.N,GND*%
X136474200Y-118618000D02*
X136474200Y-118541800D01*
X132435600Y-122656600D02*
X136474200Y-118618000D01*
X118033800Y-122580400D02*
X132283200Y-122580400D01*
X115733600Y-120280200D02*
X118033800Y-122580400D01*
X115733600Y-117454600D02*
X115733600Y-120280200D01*
%TO.N,SWITCH*%
X134924800Y-118287800D02*
X134924800Y-118135400D01*
X131267200Y-121462800D02*
X131749800Y-121462800D01*
X131241800Y-121488200D02*
X131267200Y-121462800D01*
X131749800Y-121462800D02*
X134924800Y-118287800D01*
X118948200Y-121488200D02*
X131241800Y-121488200D01*
X117119400Y-113588800D02*
X117119400Y-119659400D01*
X117119400Y-119659400D02*
X118948200Y-121488200D01*
X115722400Y-112191800D02*
X117119400Y-113588800D01*
%TO.N,GND*%
X141071600Y-122224800D02*
X143002000Y-124155200D01*
X146020200Y-110972600D02*
X146799600Y-111752000D01*
D19*
X140864500Y-122224800D02*
X141071600Y-122224800D01*
X138738700Y-112289500D02*
X138738700Y-113182400D01*
D18*
X146096400Y-124155200D02*
X146799600Y-123452000D01*
X140055600Y-110972600D02*
X136398000Y-114630200D01*
X136398000Y-114630200D02*
X136398000Y-118364000D01*
D19*
X140055600Y-110972600D02*
X138738700Y-112289500D01*
D18*
X143002000Y-124155200D02*
X146096400Y-124155200D01*
X140055600Y-110972600D02*
X146020200Y-110972600D01*
%TO.N,+5V*%
X138252200Y-118973600D02*
X133400800Y-123825000D01*
X138801600Y-116332000D02*
X138852400Y-116382800D01*
X138852400Y-116382800D02*
X138852400Y-118922800D01*
X133400800Y-123825000D02*
X116814600Y-123825000D01*
X138852400Y-118922800D02*
X138801600Y-118973600D01*
X138801600Y-118973600D02*
X138252200Y-118973600D01*
X113193600Y-120204000D02*
X113193600Y-119735600D01*
D19*
X138801600Y-118973600D02*
X138852400Y-119024400D01*
X113193600Y-120029200D02*
X113193600Y-119735600D01*
D18*
X113193600Y-117454600D02*
X113193600Y-120029200D01*
X116814600Y-123825000D02*
X113193600Y-120204000D01*
%TO.N,SWITCH*%
X135102600Y-118135400D02*
X135102600Y-113004600D01*
D19*
X134924800Y-118135400D02*
X135102600Y-118135400D01*
D18*
X135102600Y-113004600D02*
X136448800Y-111658400D01*
D19*
X136448800Y-111658400D02*
X136448800Y-111633000D01*
D18*
%TO.N,ENC1*%
X140813700Y-113182400D02*
X140813700Y-116319900D01*
X141462000Y-116992400D02*
X140801600Y-116332000D01*
X147799600Y-115102000D02*
X145909200Y-116992400D01*
D19*
X140813700Y-116319900D02*
X140801600Y-116332000D01*
D18*
X145909200Y-116992400D02*
X141462000Y-116992400D01*
%TO.N,ENC2*%
X138789500Y-122224800D02*
X138789500Y-121087300D01*
X147799600Y-120102000D02*
X146239400Y-118541800D01*
X111328200Y-118364000D02*
X111201200Y-118237000D01*
D19*
X111201200Y-118491000D02*
X111328200Y-118364000D01*
D18*
X146239400Y-118541800D02*
X141335000Y-118541800D01*
X111201200Y-120091200D02*
X111201200Y-118491000D01*
X111201200Y-116907000D02*
X111328200Y-116780000D01*
X138789500Y-121087300D02*
X140852400Y-119024400D01*
X141335000Y-118541800D02*
X140852400Y-119024400D01*
X111201200Y-118237000D02*
X111201200Y-116907000D01*
X135763000Y-124891800D02*
X116001800Y-124891800D01*
X116001800Y-124891800D02*
X111201200Y-120091200D01*
X111328200Y-116780000D02*
X113193600Y-114914600D01*
X138430000Y-122224800D02*
X135763000Y-124891800D01*
%TD*%
M02*
